<svg width="90" height="20" fill="none" xmlns="http://www.w3.org/2000/svg"><g id="Socials"><path id="Github" d="M10 0C4.475 0 0 4.362 0 9.741c0 4.305 2.865 7.955 6.838 9.242.5.092.683-.21.683-.468 0-.232-.008-.844-.013-1.657-2.781.588-3.368-1.306-3.368-1.306-.455-1.125-1.112-1.425-1.112-1.425-.906-.604.07-.592.07-.592 1.004.068 1.531 1.004 1.531 1.004.892 1.49 2.341 1.059 2.913.81.09-.63.347-1.059.633-1.302-2.22-.244-4.555-1.082-4.555-4.814 0-1.063.388-1.932 1.03-2.614-.113-.246-.45-1.236.087-2.578 0 0 .837-.26 2.75.999a9.82 9.82 0 012.5-.329c.85.005 1.7.112 2.5.329 1.9-1.26 2.737-.999 2.737-.999.538 1.342.2 2.332.1 2.578a3.719 3.719 0 011.025 2.614c0 3.742-2.337 4.566-4.562 4.805.35.293.675.89.675 1.803 0 1.303-.013 2.35-.013 2.667 0 .256.175.56.688.463 4-1.279 6.863-4.932 6.863-9.23C20 4.361 15.523 0 10 0z" fill="#212121"/><g id="Instagram"><g id="Group"><g id="Group_2"><path id="Vector" d="M48.75 0h-7.5A6.25 6.25 0 0035 6.25v7.5A6.25 6.25 0 0041.25 20h7.5A6.25 6.25 0 0055 13.75v-7.5A6.25 6.25 0 0048.75 0zm4.374 13.75a4.38 4.38 0 01-4.375 4.375h-7.5a4.38 4.38 0 01-4.375-4.375v-7.5a4.38 4.38 0 014.375-4.375h7.5a4.38 4.38 0 014.375 4.375v7.5z" fill="#000"/></g></g><g id="Group_3"><g id="Group_4"><path id="Vector_2" d="M45 5a5 5 0 100 10 5 5 0 000-10zm0 8.125A3.13 3.13 0 0141.873 10 3.129 3.129 0 0145 6.875 3.129 3.129 0 0148.124 10 3.13 3.13 0 0145 13.125z" fill="#000"/></g></g><g id="Group_5"><g id="Group_6"><path id="Vector_3" d="M50.374 5.291a.666.666 0 100-1.332.666.666 0 000 1.332z" fill="#000"/></g></g></g><path id="Facebook" d="M87.07 0H72.93A2.933 2.933 0 0070 2.93v14.14A2.933 2.933 0 0072.93 20h5.898v-7.07h-2.344V9.414h2.344V7.031a3.52 3.52 0 013.515-3.515h3.555V7.03h-3.555v2.383h3.555l-.586 3.516h-2.969V20h4.727A2.933 2.933 0 0090 17.07V2.93A2.933 2.933 0 0087.07 0z" fill="#000"/></g></svg>